<?xml version="1.0" standalone="no"?>
<!DOCTYPE svg PUBLIC "-//W3C//DTD SVG 20010904//EN"
 "http://www.w3.org/TR/2001/REC-SVG-20010904/DTD/svg10.dtd">
<svg version="1.0" xmlns="http://www.w3.org/2000/svg"
 width="700.000000pt" height="700.000000pt" viewBox="0 0 700.000000 700.000000"
 preserveAspectRatio="xMidYMid meet">
<metadata>
Created by potrace 1.14, written by Peter Selinger 2001-2017
</metadata>
<g transform="translate(0.000000,700.000000) scale(0.100000,-0.100000)"
fill="#000000" stroke="none">
<path d="M3341 6985 c-203 -45 -371 -139 -539 -304 -201 -197 -371 -464 -524
-821 -65 -152 -51 -142 -173 -126 -128 16 -152 18 -216 19 -55 1 -73 -3 -103
-23 -51 -35 -80 -97 -73 -160 10 -95 70 -142 192 -155 152 -15 194 -21 201
-28 2 -2 -3 -28 -12 -57 -9 -30 -17 -61 -20 -69 -2 -9 -10 -41 -18 -71 -9 -30
-31 -131 -50 -225 -35 -171 -40 -197 -52 -270 -3 -22 -12 -78 -19 -124 -8 -46
-14 -87 -13 -90 5 -49 -4 -60 -144 -172 -79 -63 -166 -134 -194 -159 -157
-139 -209 -188 -308 -284 -89 -88 -111 -105 -121 -94 -7 7 -50 65 -95 128
-338 473 -449 894 -306 1165 62 119 186 218 349 280 71 26 215 60 305 70 110
13 161 55 177 144 13 77 -44 172 -113 187 -43 9 -49 9 -122 0 -353 -41 -642
-182 -812 -396 -327 -410 -215 -1034 309 -1728 l93 -123 -68 -87 c-38 -48 -99
-132 -135 -187 -37 -55 -70 -104 -75 -110 -11 -14 -64 -108 -105 -186 -74
-143 -157 -361 -171 -453 -4 -21 -8 -41 -10 -45 -16 -28 -26 -267 -14 -356 44
-338 259 -594 617 -735 62 -24 224 -66 291 -75 25 -3 52 -8 60 -10 88 -23 586
-24 707 -1 23 5 141 19 167 20 14 1 25 -12 39 -49 60 -151 115 -267 197 -420
29 -55 176 -283 189 -295 3 -3 24 -27 46 -55 59 -74 184 -195 261 -253 98 -73
245 -146 349 -173 94 -23 258 -32 356 -17 149 22 362 129 492 246 87 78 179
179 198 214 64 123 -43 266 -183 243 -34 -6 -57 -24 -154 -120 -129 -128 -221
-191 -336 -229 -280 -94 -572 67 -835 459 -22 33 -52 81 -66 108 -15 26 -39
68 -54 94 -46 82 -143 307 -135 315 4 3 75 25 157 48 228 62 475 148 707 245
l66 28 151 -62 c174 -71 483 -175 656 -221 66 -18 123 -34 127 -36 8 -5 -36
-111 -110 -264 -58 -119 -65 -145 -51 -194 30 -108 176 -159 264 -92 38 30
104 152 186 346 44 105 61 135 75 133 27 -2 136 -14 164 -18 208 -25 546 -25
718 1 32 5 190 38 232 49 70 18 244 89 270 110 8 7 36 24 61 39 113 65 237
198 303 326 108 208 129 440 65 710 -67 287 -231 599 -486 928 l-64 82 63 83
c35 45 65 84 68 87 14 13 140 204 182 275 140 239 237 495 264 695 41 312 -49
600 -250 794 -149 145 -411 267 -646 301 -24 4 -47 8 -50 10 -3 2 -46 7 -95
11 -162 14 -484 8 -615 -11 -70 -10 -139 -18 -169 -19 -33 -1 -35 1 -58 59
-35 89 -34 86 -127 276 -201 413 -449 700 -726 839 -70 35 -147 64 -198 75
-12 3 -32 8 -44 11 -51 13 -255 12 -317 -1z m284 -341 c68 -17 184 -77 247
-126 72 -57 178 -169 250 -265 37 -50 68 -94 68 -97 0 -3 13 -24 29 -48 40
-60 134 -240 166 -318 14 -36 33 -80 42 -99 8 -18 11 -36 6 -40 -4 -4 -64 -22
-133 -41 -229 -61 -561 -175 -757 -261 l-42 -18 -128 50 c-70 28 -137 54 -148
59 -57 26 -368 126 -500 162 -82 22 -154 44 -159 48 -9 9 65 182 140 325 186
360 432 606 666 669 71 19 180 19 253 0z m1985 -1233 c352 -49 583 -193 663
-411 84 -232 0 -574 -234 -949 -50 -80 -182 -268 -204 -290 -2 -2 -44 36 -93
85 -84 84 -168 164 -258 244 -55 50 -257 217 -331 274 -67 52 -69 56 -78 131
-23 190 -83 497 -137 705 -56 215 -53 200 -32 201 11 0 33 2 49 4 17 1 73 6
125 10 52 4 96 9 98 10 9 7 361 -4 432 -14z m-1047 -103 c2 -13 23 -93 45
-179 23 -85 43 -166 46 -180 2 -13 14 -71 25 -128 29 -142 27 -152 -17 -111
-12 11 -24 20 -27 20 -3 0 -42 24 -88 54 -107 69 -365 217 -511 292 -64 32
-116 61 -116 64 0 3 17 11 38 17 20 6 91 30 157 53 137 47 390 119 421 119 15
1 23 -6 27 -21z m-2018 -7 c39 -11 97 -27 130 -35 151 -41 397 -129 384 -137
-8 -5 -39 -22 -69 -38 -183 -95 -354 -192 -547 -313 -78 -48 -144 -88 -146
-88 -3 0 1 28 8 63 55 252 80 363 100 432 12 44 25 92 29 108 8 32 17 33 111
8z m991 -357 c122 -50 457 -226 674 -352 135 -78 545 -345 554 -360 7 -12 21
-199 31 -407 10 -208 5 -633 -9 -820 -3 -33 -8 -98 -12 -145 -3 -47 -8 -88
-10 -92 -4 -5 -374 -252 -429 -285 -98 -59 -185 -110 -207 -123 -230 -127
-501 -266 -591 -304 -45 -18 -34 -23 -290 106 -231 115 -399 208 -607 336
-113 70 -378 247 -397 266 -6 6 -14 52 -18 101 -4 50 -9 106 -10 125 -21 221
-21 742 0 1020 13 174 17 215 21 222 8 12 356 242 469 310 217 130 383 221
578 319 109 54 202 99 206 99 5 0 26 -7 47 -16z m-1671 -1443 l0 -450 -25 22
c-13 12 -31 29 -40 37 -8 8 -46 42 -85 75 -38 33 -127 118 -199 188 l-130 128
125 122 c68 67 160 154 203 192 69 61 151 134 151 135 0 0 0 -202 0 -449z
m3351 374 c163 -142 384 -358 384 -375 0 -15 -236 -247 -355 -349 -22 -19 -56
-49 -75 -68 l-36 -33 2 382 c1 211 -1 413 -5 450 -7 77 -11 77 85 -7z m-3947
-732 c161 -161 281 -268 484 -431 78 -62 147 -121 154 -130 6 -9 14 -46 18
-82 4 -36 8 -67 10 -70 2 -3 6 -27 9 -55 21 -157 131 -668 161 -748 8 -19 -8
-24 -105 -32 -41 -4 -88 -9 -105 -11 -16 -3 -102 -7 -190 -8 -266 -5 -454 23
-633 94 -210 84 -340 234 -372 429 -45 271 103 662 398 1054 36 48 67 87 69
87 2 0 48 -44 102 -97z m4625 17 c30 -41 59 -79 63 -85 21 -27 115 -178 150
-240 154 -275 227 -564 189 -745 -3 -14 -9 -38 -12 -55 -14 -67 -96 -199 -151
-245 -124 -104 -285 -170 -493 -201 -131 -20 -540 -16 -645 6 -11 3 -38 7 -59
10 -22 3 -41 7 -42 8 -2 2 10 52 26 112 30 112 84 351 95 415 3 19 8 42 10 50
2 8 6 33 9 55 4 22 8 51 11 65 11 59 16 90 27 179 l12 94 121 95 c66 53 131
106 145 118 14 12 66 57 115 100 95 83 211 192 304 287 31 31 59 56 62 55 4
-2 32 -37 63 -78z m-3481 -919 c32 -20 66 -41 75 -46 9 -6 67 -40 127 -76 61
-36 130 -77 155 -91 97 -54 167 -93 220 -119 30 -16 61 -32 69 -37 16 -11
-207 -88 -452 -156 l-158 -44 -9 24 c-28 73 -121 466 -137 578 l-5 40 28 -19
c16 -10 55 -35 87 -54z m2287 56 c0 -23 -59 -298 -90 -416 -47 -183 -53 -201
-68 -201 -15 0 -201 48 -212 55 -3 2 -18 6 -31 8 -14 3 -103 31 -198 62 -149
49 -170 59 -154 69 10 7 65 38 123 68 153 81 409 231 519 303 103 68 111 72
111 52z"/>
<path d="M3330 4294 c-187 -40 -387 -173 -492 -327 -102 -149 -146 -292 -146
-467 0 -361 227 -665 583 -780 93 -30 297 -37 400 -14 217 50 409 189 526 384
20 34 52 106 69 159 27 79 34 117 38 213 3 73 0 141 -8 180 -64 326 -307 579
-627 652 -88 20 -252 20 -343 0z"/>
</g>
</svg>
